<svg id="Lager_1" data-name="Lager 1" xmlns="http://www.w3.org/2000/svg" viewBox="0 0 100 66.64"><defs><style>.cls-1{fill:#fff;}.cls-2{fill:#cc3141;}.cls-3{fill:#0f4591;}</style></defs><title>UK</title><polyline class="cls-1" points="100 0.02 100 0 91.95 0"/><polygon class="cls-1" points="91.95 0 0 0 0 66.64 100 66.64 100 0.02 91.95 0"/><polygon class="cls-2" points="100 27.56 55.75 27.56 55.75 0 44.25 0 44.25 27.56 0 27.56 0 39.06 44.25 39.06 44.25 66.64 55.75 66.64 55.75 39.06 100 39.06 100 27.56"/><polygon class="cls-2" points="91.95 0 59.97 21.34 59.97 23.54 64.75 23.54 100 0.02 100 0 91.95 0"/><polygon class="cls-3" points="59.97 0 59.97 19.01 88.36 0 59.97 0"/><polygon class="cls-3" points="76.11 23.54 100 23.54 100 7.77 76.11 23.54"/><polygon class="cls-2" points="8.05 0 40.03 21.34 40.03 23.54 35.25 23.54 0 0.02 0 0 8.05 0"/><polygon class="cls-3" points="40.03 0 40.03 19.01 11.64 0 40.03 0"/><polygon class="cls-3" points="23.89 23.54 0 23.54 0 7.77 23.89 23.54"/><polygon class="cls-2" points="91.95 66.62 59.97 45.28 59.97 43.08 64.75 43.08 100 66.6 100 66.62 91.95 66.62"/><polygon class="cls-3" points="59.97 66.62 59.97 47.61 88.36 66.62 59.97 66.62"/><polygon class="cls-3" points="76.11 43.08 100 43.08 100 58.86 76.11 43.08"/><polygon class="cls-2" points="8.05 66.62 40.03 45.28 40.03 43.08 35.25 43.08 0 66.6 0 66.62 8.05 66.62"/><polygon class="cls-3" points="40.03 66.62 40.03 47.61 11.64 66.62 40.03 66.62"/><polygon class="cls-3" points="23.89 43.08 0 43.08 0 58.86 23.89 43.08"/></svg>