<svg xmlns="http://www.w3.org/2000/svg" viewBox="0 0 305.98 240.25"><defs><style>.cls-1{fill:#fff;}</style></defs><title>Logga vit utan linjer</title><g id="Lager_2" data-name="Lager 2"><g id="Lager_1-2" data-name="Lager 1"><path class="cls-1" d="M277,120.13C254.8,91.53,214.9,90.92,181.79,91H90.3q1.76-8.23,3.52-16.48c2.89-12.43,15-23.54,28.24-23.27h91.65c7.83.15,16.95,0,23.27,5.08,4.68,3.78,7.33,10,7.89,16.1a3.81,3.81,0,0,0,3.78,3.49h52.64A3.78,3.78,0,0,0,305,72.68a78.76,78.76,0,0,0-.92-29.28A50,50,0,0,0,291.9,21.14c-7-7.39-16.23-12-25.55-15.38C254.16,1.29,240.74.4,227.64,0V0H115.3C78,0,42.82,30,35.08,66.1Q17.58,148,.09,230a3.78,3.78,0,0,0,3.7,4.58H56.58a3.8,3.8,0,0,0,3.71-3q9.52-44.64,19.07-89.29h91.48c12.2,0,24.7-.19,36.57,2.62,10.68,2.54,22.73,11.5,20,23.94a26.63,26.63,0,0,1-11.66,16.33c-7.44,4.6-17.12,6-25.73,5.77-9.13-.24-20.42-1-27.48-7.85-5.24-5.08-7.17-12.72-7-20a3.8,3.8,0,0,0-3.79-3.88H97.86a3.79,3.79,0,0,0-3.76,3.3c-2.54,20.23-.3,42.18,14.94,57.16,17.42,17.13,45.08,20.72,68.16,20.58,14.77-.09,29.88-1.32,44.08-5.45,11.76-3.42,23.17-8.08,33.37-15.21A80.85,80.85,0,0,0,277.29,196c5.84-9.55,11.33-19.74,12.33-30.75C291.09,149.24,287.17,133.19,277,120.13Z"/></g></g></svg>